<svg width="160" height="140" viewBox="0 0 160 140" fill="none" xmlns="http://www.w3.org/2000/svg">
<path d="M6.96733 21.179C8.65483 21.179 9.81818 20.5526 10.777 19.4339H10.8409L11.0199 21H12.5412V14.3011H7.26776V15.9311H10.6044C10.5341 17.9574 9.10866 19.3764 6.96733 19.3764C4.66619 19.3764 2.97869 17.6314 2.97869 14.4482C2.97869 11.2713 4.73011 9.53267 6.94815 9.53267C8.6804 9.53267 9.9652 10.4851 10.4254 12.0447H12.4517C12.0107 9.49432 9.76065 7.73011 6.92898 7.73011C3.54759 7.73011 1.01634 10.2805 1.01634 14.4609C1.01634 18.603 3.42614 21.179 6.96733 21.179ZM18.9988 21.1982C21.1401 21.1982 22.655 20.1435 23.0897 18.5455L21.2807 18.2195C20.9355 19.1463 20.1046 19.6193 19.0179 19.6193C17.3816 19.6193 16.2821 18.5582 16.231 16.6662H23.2111V15.9886C23.2111 12.4411 21.089 11.054 18.8645 11.054C16.1287 11.054 14.3262 13.1378 14.3262 16.1548C14.3262 19.2038 16.1032 21.1982 18.9988 21.1982ZM16.2374 15.2344C16.3141 13.8409 17.324 12.6328 18.8773 12.6328C20.3603 12.6328 21.3319 13.7322 21.3382 15.2344H16.2374ZM29.9148 11.1818H27.9013V8.82955H25.9901V11.1818H24.5518V12.7159H25.9901V18.5135C25.9837 20.2969 27.3452 21.1598 28.8537 21.1278C29.4609 21.1214 29.87 21.0064 30.0938 20.9233L29.7486 19.3445C29.6207 19.37 29.3842 19.4276 29.0774 19.4276C28.4574 19.4276 27.9013 19.223 27.9013 18.1172V12.7159H29.9148V11.1818ZM41.3757 11.1818H39.3622V8.82955H37.451V11.1818H36.0128V12.7159H37.451V18.5135C37.4446 20.2969 38.8061 21.1598 40.3146 21.1278C40.9219 21.1214 41.331 21.0064 41.5547 20.9233L41.2095 19.3445C41.0817 19.37 40.8452 19.4276 40.5384 19.4276C39.9183 19.4276 39.3622 19.223 39.3622 18.1172V12.7159H41.3757V11.1818ZM45.612 15.1705C45.612 13.6044 46.6028 12.7095 47.9643 12.7095C49.2811 12.7095 50.0673 13.5469 50.0673 14.9851V21H51.9785V14.755C51.9785 12.3068 50.6362 11.054 48.6163 11.054C47.0886 11.054 46.1681 11.7188 45.7079 12.7798H45.5865V7.90909H43.7008V21H45.612V15.1705ZM58.7605 21.1982C60.9018 21.1982 62.4167 20.1435 62.8514 18.5455L61.0424 18.2195C60.6973 19.1463 59.8663 19.6193 58.7797 19.6193C57.1433 19.6193 56.0439 18.5582 55.9927 16.6662H62.9728V15.9886C62.9728 12.4411 60.8507 11.054 58.6262 11.054C55.8904 11.054 54.0879 13.1378 54.0879 16.1548C54.0879 19.2038 55.8649 21.1982 58.7605 21.1982ZM55.9991 15.2344C56.0758 13.8409 57.0858 12.6328 58.639 12.6328C60.122 12.6328 61.0936 13.7322 61.1 15.2344H55.9991ZM71.1163 21L72.318 17.5355H77.4316L78.627 21H80.7235L76.0126 7.90909H73.7306L69.0197 21H71.1163ZM72.8933 15.8736L74.8237 10.2869H74.926L76.8564 15.8736H72.8933ZM82.4606 24.6818H84.3718V19.4723H84.4869C84.832 20.0987 85.5352 21.1918 87.3249 21.1918C89.7028 21.1918 91.4286 19.2869 91.4286 16.1101C91.4286 12.9268 89.6772 11.054 87.3058 11.054C85.484 11.054 84.8256 12.1662 84.4869 12.7734H84.3271V11.1818H82.4606V24.6818ZM84.3335 16.0909C84.3335 14.0391 85.2283 12.6776 86.8967 12.6776C88.6289 12.6776 89.4982 14.1413 89.4982 16.0909C89.4982 18.0597 88.6033 19.5618 86.8967 19.5618C85.2539 19.5618 84.3335 18.1555 84.3335 16.0909ZM93.57 24.6818H95.4812V19.4723H95.5962C95.9414 20.0987 96.6445 21.1918 98.4343 21.1918C100.812 21.1918 102.538 19.2869 102.538 16.1101C102.538 12.9268 100.787 11.054 98.4151 11.054C96.5934 11.054 95.935 12.1662 95.5962 12.7734H95.4364V11.1818H93.57V24.6818ZM95.4428 16.0909C95.4428 14.0391 96.3377 12.6776 98.006 12.6776C99.7383 12.6776 100.608 14.1413 100.608 16.0909C100.608 18.0597 99.7127 19.5618 98.006 19.5618C96.3633 19.5618 95.4428 18.1555 95.4428 16.0909Z" fill="#D9DBE1"/>
<g clip-path="url(#clip0)">
<path d="M124.249 44H10.7566C10.3429 44 9.9342 44 9.5216 44.002C9.17621 44.004 8.83358 44.0098 8.48488 44.0147C7.72733 44.0226 6.97157 44.0817 6.22416 44.1914C5.4778 44.3035 4.75482 44.5149 4.07967 44.8184C3.40534 45.1245 2.7892 45.5222 2.25357 45.9971C1.71514 46.4706 1.26632 47.018 0.924356 47.6182C0.581453 48.2171 0.343683 48.8589 0.219258 49.5215C0.0936495 50.1832 0.0260586 50.8525 0.0170916 51.5235C0.00662229 51.8301 0.00551669 52.1377 0 52.4443V75.5586C0.00551669 75.8691 0.00662229 76.1699 0.0170916 76.4805C0.0260614 77.1514 0.0936522 77.8207 0.219258 78.4824C0.343339 79.1453 0.581124 79.7875 0.924356 80.3867C1.26616 80.9849 1.71505 81.5301 2.25357 82.001C2.78717 82.478 3.40371 82.876 4.07967 83.1797C4.75481 83.484 5.47772 83.6967 6.22416 83.8105C6.9717 83.9194 7.72738 83.9785 8.48488 83.9873C8.83358 83.9941 9.17621 83.998 9.5216 83.998C9.93419 84 10.343 84 10.7566 84H124.249C124.655 84 125.067 84 125.472 83.998C125.816 83.998 126.169 83.9941 126.512 83.9873C127.268 83.9789 128.023 83.9198 128.769 83.8105C129.518 83.6959 130.243 83.4833 130.921 83.1797C131.597 82.8758 132.213 82.4779 132.746 82.001C133.283 81.5282 133.733 80.9835 134.079 80.3867C134.42 79.7871 134.655 79.145 134.777 78.4824C134.903 77.8206 134.973 77.1515 134.987 76.4805C134.991 76.1699 134.991 75.8691 134.991 75.5586C135 75.1953 135 74.834 135 74.4648V53.5361C135 53.1699 135 52.8066 134.991 52.4443C134.991 52.1377 134.991 51.8301 134.987 51.5234C134.973 50.8524 134.903 50.1832 134.777 49.5214C134.655 48.8593 134.419 48.2175 134.079 47.6181C133.383 46.4152 132.278 45.436 130.921 44.8183C130.243 44.5156 129.518 44.3042 128.769 44.1913C128.023 44.0811 127.269 44.022 126.512 44.0146C126.169 44.0097 125.816 44.0038 125.472 44.0019C125.067 43.9999 124.655 43.9999 124.249 43.9999V44Z" fill="#A6A6A6"/>
<path d="M9.42998 83.128C9.08566 83.128 8.74966 83.1241 8.40804 83.1173C7.70034 83.1092 6.9943 83.0546 6.29571 82.9542C5.6443 82.8549 5.01327 82.6702 4.42342 82.4062C3.83897 82.1443 3.30591 81.801 2.84466 81.3894C2.37673 80.9826 1.98715 80.5107 1.69137 79.9926C1.39233 79.4711 1.18538 78.912 1.07772 78.335C0.961463 77.715 0.898562 77.0881 0.889561 76.4596C0.882396 76.2487 0.873016 75.5463 0.873016 75.5463V52.4409C0.873016 52.4409 0.883007 51.7494 0.889618 51.5462C0.898236 50.9188 0.960772 50.2928 1.07668 49.6738C1.18454 49.0952 1.39165 48.5345 1.69085 48.0113C1.98554 47.4935 2.37296 47.0213 2.83807 46.6131C3.30266 46.2009 3.83742 45.8558 4.42286 45.5904C5.01136 45.3272 5.6412 45.1438 6.29129 45.0463C6.99218 44.9449 7.70067 44.89 8.41082 44.8822L9.43053 44.87H125.57L126.602 44.8827C127.306 44.8901 128.008 44.9445 128.702 45.0454C129.359 45.1441 129.995 45.3287 130.59 45.5933C131.763 46.1283 132.718 46.9746 133.32 48.0138C133.614 48.5334 133.818 49.0894 133.924 49.663C134.042 50.2871 134.107 50.918 134.121 51.5506C134.124 51.8339 134.124 52.1381 134.124 52.4409C134.133 52.816 134.133 53.173 134.133 53.533V74.466C134.133 74.8294 134.133 75.184 134.124 75.5414C134.124 75.8667 134.124 76.1647 134.12 76.4713C134.106 77.0926 134.042 77.7123 133.927 78.3252C133.821 78.9064 133.615 79.4698 133.316 79.9956C133.018 80.5081 132.631 80.9758 132.169 81.3816C131.707 81.7954 131.173 82.1408 130.587 82.4043C129.993 82.6703 129.358 82.8557 128.702 82.9542C128.004 83.0552 127.297 83.1097 126.59 83.1173C126.259 83.1241 125.912 83.128 125.576 83.128L124.35 83.13L9.42998 83.128Z" fill="black"/>
<path d="M32.7973 64.3007C32.8081 63.466 33.0298 62.6477 33.4418 61.9217C33.8538 61.1957 34.4428 60.5858 35.1539 60.1486C34.7021 59.5035 34.1062 58.9725 33.4134 58.598C32.7205 58.2234 31.9499 58.0156 31.1627 57.991C29.4835 57.8147 27.8555 58.9958 26.9998 58.9958C26.1275 58.9958 24.81 58.0085 23.3913 58.0376C22.4736 58.0673 21.5793 58.3341 20.7954 58.8122C20.0115 59.2903 19.3649 59.9632 18.9184 60.7655C16.9844 64.1139 18.427 69.035 20.2796 71.7416C21.2065 73.0669 22.2898 74.5474 23.7072 74.4949C25.0943 74.4374 25.6123 73.6104 27.2866 73.6104C28.9454 73.6104 29.4314 74.4949 30.8776 74.4615C32.366 74.4374 33.3038 73.1303 34.1981 71.7924C34.8641 70.848 35.3766 69.8043 35.7166 68.6999C34.8518 68.3341 34.1139 67.722 33.5948 66.9397C33.0757 66.1574 32.7983 65.2396 32.7973 64.3007Z" fill="white"/>
<path d="M30.0657 56.2109C30.8772 55.2367 31.277 53.9845 31.1802 52.7203C29.9404 52.8505 28.7951 53.4431 27.9726 54.3799C27.5705 54.8376 27.2625 55.37 27.0662 55.9468C26.87 56.5235 26.7893 57.1333 26.8289 57.7413C27.449 57.7477 28.0626 57.6132 28.6232 57.3482C29.1839 57.0831 29.6771 56.6942 30.0657 56.2109Z" fill="white"/>
<path d="M50.3307 71.1396H45.5973L44.4606 74.4961H42.4557L46.9391 62.0781H49.0221L53.5055 74.4961H51.4664L50.3307 71.1396ZM46.0875 69.5908H49.8395L47.9899 64.1435H47.9381L46.0875 69.5908Z" fill="white"/>
<path d="M63.1881 69.9697C63.1881 72.7832 61.6823 74.5908 59.4098 74.5908C58.8341 74.6209 58.2616 74.4883 57.7578 74.2082C57.254 73.928 56.8393 73.5117 56.5612 73.0068H56.5182V77.4912H54.6598V65.4424H56.4586V66.9482H56.4928C56.7838 66.4458 57.2055 66.0316 57.7131 65.7497C58.2207 65.4679 58.7953 65.3289 59.3756 65.3476C61.6734 65.3477 63.1881 67.1641 63.1881 69.9697ZM61.278 69.9697C61.278 68.1367 60.3307 66.9316 58.8854 66.9316C57.4654 66.9316 56.5104 68.1621 56.5104 69.9697C56.5104 71.7939 57.4654 73.0156 58.8854 73.0156C60.3307 73.0156 61.278 71.8193 61.278 69.9697Z" fill="white"/>
<path d="M73.153 69.9697C73.153 72.7832 71.6471 74.5908 69.3746 74.5908C68.799 74.6209 68.2265 74.4883 67.7227 74.2082C67.2189 73.928 66.8042 73.5117 66.526 73.0068H66.483V77.4912H64.6246V65.4424H66.4234V66.9482H66.4576C66.7486 66.4458 67.1703 66.0316 67.6779 65.7497C68.1856 65.4679 68.7601 65.3289 69.3404 65.3476C71.6383 65.3476 73.153 67.164 73.153 69.9697ZM71.2428 69.9697C71.2428 68.1367 70.2955 66.9316 68.8502 66.9316C67.4303 66.9316 66.4752 68.1621 66.4752 69.9697C66.4752 71.7939 67.4303 73.0156 68.8502 73.0156C70.2955 73.0156 71.2428 71.8193 71.2428 69.9697H71.2428Z" fill="white"/>
<path d="M79.7389 71.0361C79.8766 72.2676 81.0729 73.0761 82.7076 73.0761C84.2741 73.0761 85.401 72.2675 85.401 71.1572C85.401 70.1933 84.7213 69.6162 83.1119 69.2207L81.5026 68.833C79.2223 68.2822 78.1637 67.2158 78.1637 65.4853C78.1637 63.3427 80.0309 61.871 82.6823 61.871C85.3063 61.871 87.1051 63.3427 87.1656 65.4853H85.2896C85.1774 64.246 84.1529 63.498 82.6559 63.498C81.1588 63.498 80.1344 64.2548 80.1344 65.3564C80.1344 66.2343 80.7887 66.7509 82.3893 67.1464L83.7574 67.4823C86.3053 68.0849 87.3639 69.1083 87.3639 70.9247C87.3639 73.248 85.5133 74.703 82.5699 74.703C79.816 74.703 77.9566 73.2821 77.8365 71.036L79.7389 71.0361Z" fill="white"/>
<path d="M91.3746 63.2998V65.4424H93.0963V66.9141H91.3746V71.9053C91.3746 72.6807 91.7194 73.042 92.4762 73.042C92.6806 73.0384 92.8846 73.0241 93.0875 72.999V74.4619C92.7472 74.5255 92.4014 74.5543 92.0553 74.5478C90.2223 74.5478 89.5074 73.8593 89.5074 72.1035V66.9141H88.191V65.4424H89.5074V63.2998H91.3746Z" fill="white"/>
<path d="M94.0934 69.9697C94.0934 67.1211 95.7711 65.3311 98.3874 65.3311C101.012 65.3311 102.682 67.1211 102.682 69.9697C102.682 72.8262 101.021 74.6084 98.3874 74.6084C95.7545 74.6084 94.0934 72.8262 94.0934 69.9697ZM100.789 69.9697C100.789 68.0156 99.8932 66.8623 98.3874 66.8623C96.8815 66.8623 95.987 68.0244 95.987 69.9697C95.987 71.9316 96.8815 73.0762 98.3874 73.0762C99.8932 73.0762 100.789 71.9316 100.789 69.9697H100.789Z" fill="white"/>
<path d="M104.214 65.4424H105.987V66.9834H106.03C106.15 66.5021 106.432 66.0768 106.828 65.7789C107.225 65.481 107.712 65.3287 108.208 65.3476C108.422 65.3469 108.635 65.3702 108.844 65.417V67.1553C108.574 67.0726 108.292 67.0347 108.009 67.043C107.739 67.032 107.47 67.0796 107.22 67.1825C106.971 67.2854 106.746 67.4411 106.562 67.639C106.378 67.8369 106.239 68.0723 106.155 68.3289C106.07 68.5856 106.042 68.8575 106.073 69.126V74.4961H104.214L104.214 65.4424Z" fill="white"/>
<path d="M117.413 71.8369C117.163 73.4805 115.562 74.6084 113.514 74.6084C110.88 74.6084 109.246 72.8437 109.246 70.0127C109.246 67.1729 110.889 65.3311 113.436 65.3311C115.941 65.3311 117.516 67.0518 117.516 69.7969V70.4336H111.122V70.5459C111.092 70.8791 111.134 71.2148 111.244 71.5306C111.354 71.8464 111.53 72.1352 111.761 72.3778C111.991 72.6203 112.27 72.8111 112.58 72.9374C112.89 73.0637 113.223 73.1226 113.557 73.1103C113.996 73.1515 114.437 73.0498 114.814 72.8203C115.191 72.5909 115.483 72.246 115.648 71.8369L117.413 71.8369ZM111.13 69.1348H115.657C115.674 68.8352 115.628 68.5354 115.523 68.2541C115.419 67.9729 115.257 67.7164 115.049 67.5006C114.84 67.2849 114.589 67.1145 114.312 67.0003C114.034 66.8861 113.736 66.8305 113.436 66.8369C113.134 66.8351 112.834 66.8933 112.553 67.008C112.273 67.1227 112.019 67.2918 111.805 67.5054C111.59 67.7191 111.42 67.973 111.305 68.2527C111.189 68.5323 111.13 68.8321 111.13 69.1348V69.1348Z" fill="white"/>
<path d="M45.8546 52.731C46.2442 52.7031 46.6352 52.7619 46.9993 52.9033C47.3634 53.0448 47.6916 53.2653 47.9602 53.5489C48.2288 53.8325 48.4311 54.1722 48.5525 54.5435C48.6739 54.9148 48.7114 55.3083 48.6622 55.6959C48.6622 57.6021 47.632 58.6979 45.8546 58.6979H43.6993V52.731H45.8546ZM44.6261 57.854H45.7511C46.0295 57.8707 46.3081 57.825 46.5666 57.7204C46.8252 57.6158 47.0571 57.4548 47.2456 57.2493C47.4341 57.0437 47.5744 56.7987 47.6563 56.5321C47.7381 56.2655 47.7595 55.9839 47.7189 55.708C47.7566 55.4332 47.733 55.1534 47.6499 54.8887C47.5668 54.6241 47.4262 54.3811 47.2381 54.1771C47.05 53.9732 46.8192 53.8134 46.5621 53.7092C46.305 53.6049 46.0281 53.5589 45.7511 53.5742H44.6261V57.854Z" fill="white"/>
<path d="M49.7091 56.4443C49.6808 56.1484 49.7147 55.8499 49.8085 55.5678C49.9023 55.2857 50.0541 55.0264 50.254 54.8064C50.454 54.5864 50.6977 54.4107 50.9695 54.2904C51.2414 54.1701 51.5354 54.108 51.8326 54.108C52.1299 54.108 52.4239 54.1701 52.6958 54.2904C52.9676 54.4107 53.2113 54.5864 53.4113 54.8064C53.6112 55.0264 53.763 55.2857 53.8568 55.5678C53.9506 55.8499 53.9845 56.1484 53.9562 56.4443C53.985 56.7406 53.9516 57.0396 53.858 57.3221C53.7644 57.6046 53.6127 57.8644 53.4127 58.0848C53.2127 58.3052 52.9688 58.4814 52.6967 58.6019C52.4246 58.7225 52.1303 58.7847 51.8326 58.7847C51.535 58.7847 51.2407 58.7225 50.9686 58.6019C50.6964 58.4814 50.4525 58.3052 50.2526 58.0848C50.0526 57.8644 49.9009 57.6046 49.8073 57.3221C49.7137 57.0396 49.6803 56.7406 49.7091 56.4443ZM53.0421 56.4443C53.0421 55.4683 52.6036 54.8975 51.8341 54.8975C51.0617 54.8975 50.6271 55.4683 50.6271 56.4444C50.6271 57.4282 51.0617 57.9946 51.8341 57.9946C52.6037 57.9946 53.0421 57.4243 53.0421 56.4443H53.0421Z" fill="white"/>
<path d="M59.6017 58.6978H58.6798L57.7491 55.3813H57.6788L56.7521 58.6978H55.839L54.5978 54.1948H55.4991L56.3058 57.6308H56.3722L57.298 54.1948H58.1505L59.0763 57.6308H59.1466L59.9493 54.1948H60.838L59.6017 58.6978Z" fill="white"/>
<path d="M61.882 54.1948H62.7374V54.9102H62.8038C62.9165 54.6532 63.1065 54.4379 63.3474 54.2941C63.5882 54.1503 63.868 54.0852 64.1476 54.1079C64.3667 54.0914 64.5867 54.1245 64.7913 54.2046C64.9959 54.2847 65.1798 54.4098 65.3295 54.5706C65.4792 54.7315 65.5908 54.9239 65.656 55.1337C65.7212 55.3436 65.7383 55.5654 65.7062 55.7827V58.6977H64.8175V56.0059C64.8175 55.2822 64.5031 54.9224 63.8458 54.9224C63.6971 54.9154 63.5486 54.9408 63.4105 54.9966C63.2725 55.0524 63.1481 55.1375 63.046 55.2458C62.9439 55.3542 62.8664 55.4834 62.8188 55.6245C62.7713 55.7657 62.7549 55.9154 62.7706 56.0635V58.6978H61.882L61.882 54.1948Z" fill="white"/>
<path d="M67.1222 52.437H68.0109V58.6978H67.1222V52.437Z" fill="white"/>
<path d="M69.2462 56.4443C69.2179 56.1484 69.2518 55.8498 69.3456 55.5677C69.4395 55.2857 69.5913 55.0263 69.7913 54.8063C69.9912 54.5863 70.2349 54.4106 70.5068 54.2903C70.7787 54.17 71.0727 54.1079 71.37 54.1079C71.6673 54.1079 71.9613 54.17 72.2331 54.2903C72.505 54.4106 72.7487 54.5863 72.9487 54.8063C73.1487 55.0263 73.3004 55.2857 73.3943 55.5677C73.4882 55.8498 73.522 56.1484 73.4938 56.4443C73.5226 56.7406 73.4891 57.0396 73.3955 57.3221C73.3018 57.6046 73.1501 57.8644 72.9501 58.0848C72.7501 58.3052 72.5062 58.4814 72.2341 58.6019C71.9619 58.7224 71.6676 58.7847 71.37 58.7847C71.0723 58.7847 70.778 58.7224 70.5059 58.6019C70.2337 58.4814 69.9898 58.3052 69.7898 58.0848C69.5898 57.8644 69.4381 57.6046 69.3445 57.3221C69.2509 57.0396 69.2174 56.7406 69.2462 56.4443ZM72.5792 56.4443C72.5792 55.4683 72.1407 54.8975 71.3712 54.8975C70.5987 54.8975 70.1642 55.4683 70.1642 56.4444C70.1642 57.4282 70.5988 57.9946 71.3712 57.9946C72.1407 57.9946 72.5792 57.4243 72.5792 56.4443H72.5792Z" fill="white"/>
<path d="M74.4293 57.4243C74.4293 56.6138 75.0328 56.1465 76.1041 56.0801L77.3239 56.0098V55.6211C77.3239 55.1455 77.0094 54.877 76.402 54.877C75.9059 54.877 75.5621 55.0591 75.4635 55.3775H74.6031C74.694 54.604 75.4215 54.1079 76.443 54.1079C77.5719 54.1079 78.2086 54.6699 78.2086 55.6211V58.6978H77.3531V58.065H77.2828C77.1401 58.292 76.9397 58.477 76.7021 58.6012C76.4645 58.7254 76.1981 58.7844 75.9303 58.772C75.7413 58.7916 75.5502 58.7715 75.3694 58.7128C75.1887 58.6541 75.0222 58.5581 74.8808 58.4312C74.7394 58.3042 74.6262 58.149 74.5484 57.9756C74.4706 57.8022 74.4301 57.6144 74.4293 57.4243ZM77.3239 57.0396V56.6631L76.2242 56.7334C75.6041 56.7749 75.3229 56.9859 75.3229 57.3828C75.3229 57.7881 75.6744 58.0239 76.1579 58.0239C76.2995 58.0383 76.4426 58.024 76.5786 57.9819C76.7146 57.9398 76.8408 57.8708 76.9495 57.7789C77.0583 57.6871 77.1475 57.5743 77.2118 57.4473C77.2761 57.3203 77.3142 57.1816 77.3239 57.0396Z" fill="white"/>
<path d="M79.3766 56.4444C79.3766 55.0215 80.108 54.1201 81.2457 54.1201C81.5271 54.1072 81.8064 54.1746 82.051 54.3145C82.2955 54.4544 82.4951 54.661 82.6266 54.9101H82.693V52.437H83.5817V58.6978H82.7301V57.9863H82.6598C82.5182 58.2338 82.3116 58.4378 82.0623 58.5763C81.8131 58.7148 81.5307 58.7825 81.2457 58.772C80.1002 58.772 79.3766 57.8706 79.3766 56.4444ZM80.2946 56.4444C80.2946 57.3994 80.7448 57.9741 81.4977 57.9741C82.2467 57.9741 82.7096 57.3911 82.7096 56.4483C82.7096 55.5098 82.2419 54.9185 81.4977 54.9185C80.7496 54.9185 80.2946 55.4971 80.2946 56.4444H80.2946Z" fill="white"/>
<path d="M87.2584 56.4443C87.2301 56.1484 87.264 55.8499 87.3578 55.5678C87.4516 55.2857 87.6034 55.0264 87.8034 54.8064C88.0033 54.5864 88.247 54.4107 88.5188 54.2904C88.7907 54.1701 89.0847 54.108 89.382 54.108C89.6792 54.108 89.9732 54.1701 90.2451 54.2904C90.5169 54.4107 90.7606 54.5864 90.9606 54.8064C91.1605 55.0264 91.3123 55.2857 91.4061 55.5678C91.5 55.8499 91.5338 56.1484 91.5055 56.4443C91.5343 56.7406 91.5009 57.0396 91.4073 57.3221C91.3137 57.6046 91.162 57.8644 90.962 58.0848C90.7621 58.3052 90.5182 58.4814 90.246 58.6019C89.9739 58.7225 89.6796 58.7847 89.382 58.7847C89.0843 58.7847 88.79 58.7225 88.5179 58.6019C88.2458 58.4814 88.0019 58.3052 87.8019 58.0848C87.6019 57.8644 87.4502 57.6046 87.3566 57.3221C87.263 57.0396 87.2296 56.7406 87.2584 56.4443ZM90.5914 56.4443C90.5914 55.4683 90.1529 54.8975 89.3834 54.8975C88.611 54.8975 88.1764 55.4683 88.1764 56.4444C88.1764 57.4282 88.611 57.9946 89.3834 57.9946C90.153 57.9946 90.5914 57.4243 90.5914 56.4443Z" fill="white"/>
<path d="M92.6979 54.1948H93.5533V54.9102H93.6198C93.7324 54.6532 93.9224 54.4379 94.1633 54.2941C94.4042 54.1503 94.6839 54.0852 94.9635 54.1079C95.1826 54.0914 95.4026 54.1245 95.6072 54.2046C95.8118 54.2847 95.9958 54.4098 96.1454 54.5706C96.2951 54.7315 96.4067 54.9239 96.4719 55.1337C96.5371 55.3436 96.5543 55.5654 96.5221 55.7827V58.6977H95.6334V56.0059C95.6334 55.2822 95.319 54.9224 94.6618 54.9224C94.513 54.9154 94.3645 54.9408 94.2264 54.9966C94.0884 55.0524 93.964 55.1375 93.8619 55.2458C93.7598 55.3542 93.6823 55.4834 93.6348 55.6245C93.5872 55.7657 93.5708 55.9154 93.5865 56.0635V58.6978H92.6979V54.1948Z" fill="white"/>
<path d="M101.544 53.0737V54.2153H102.519V54.9639H101.544V57.2793C101.544 57.751 101.738 57.9575 102.18 57.9575C102.294 57.9572 102.407 57.9503 102.519 57.937V58.6772C102.36 58.7058 102.198 58.721 102.036 58.7226C101.047 58.7226 100.654 58.375 100.654 57.5068V54.9638H99.9391V54.2153H100.654V53.0737H101.544Z" fill="white"/>
<path d="M103.733 52.437H104.614V54.9185H104.684C104.802 54.6591 104.998 54.4425 105.243 54.2982C105.489 54.1539 105.773 54.0888 106.057 54.1118C106.275 54.1 106.493 54.1364 106.695 54.2184C106.898 54.3004 107.079 54.4261 107.227 54.5864C107.376 54.7468 107.486 54.9378 107.552 55.146C107.618 55.3541 107.637 55.5742 107.608 55.7905V58.6978H106.718V56.0098C106.718 55.2905 106.383 54.9263 105.756 54.9263C105.603 54.9137 105.449 54.9347 105.305 54.9878C105.162 55.0408 105.031 55.1247 104.923 55.2334C104.815 55.3421 104.732 55.4732 104.68 55.6173C104.628 55.7614 104.608 55.9152 104.622 56.0679V58.6977H103.733L103.733 52.437Z" fill="white"/>
<path d="M112.79 57.4819C112.669 57.8935 112.407 58.2495 112.051 58.4876C111.694 58.7258 111.265 58.8309 110.839 58.7847C110.542 58.7925 110.247 58.7357 109.975 58.6182C109.702 58.5006 109.458 58.3252 109.26 58.1041C109.063 57.8829 108.915 57.6214 108.828 57.3376C108.742 57.0537 108.718 56.7544 108.758 56.4605C108.719 56.1656 108.743 55.8656 108.83 55.581C108.916 55.2963 109.063 55.0335 109.26 54.8105C109.457 54.5874 109.699 54.4092 109.971 54.288C110.243 54.1668 110.537 54.1054 110.835 54.1079C112.088 54.1079 112.843 54.9639 112.843 56.3779V56.688H109.664V56.7378C109.65 56.9031 109.671 57.0694 109.725 57.2261C109.779 57.3829 109.865 57.5266 109.978 57.6481C110.091 57.7695 110.228 57.866 110.38 57.9314C110.533 57.9968 110.697 58.0297 110.863 58.0278C111.075 58.0533 111.291 58.0151 111.482 57.9178C111.672 57.8206 111.83 57.6689 111.934 57.4819L112.79 57.4819ZM109.664 56.0308H111.938C111.949 55.8796 111.929 55.7278 111.878 55.5851C111.827 55.4424 111.747 55.3119 111.642 55.2021C111.538 55.0922 111.412 55.0054 111.272 54.9472C111.132 54.8891 110.981 54.8608 110.83 54.8643C110.676 54.8623 110.523 54.8912 110.381 54.9491C110.239 55.0071 110.109 55.0929 110.001 55.2017C109.892 55.3104 109.806 55.4397 109.748 55.5821C109.69 55.7245 109.662 55.8771 109.664 56.0308H109.664Z" fill="white"/>
</g>
<path d="M130 100H5C2.23858 100 0 102.239 0 105V135C0 137.761 2.23858 140 5 140H130C132.761 140 135 137.761 135 135V105C135 102.239 132.761 100 130 100Z" fill="black"/>
<path d="M130 100.8C131.114 100.801 132.181 101.244 132.968 102.032C133.756 102.819 134.199 103.887 134.2 105V135C134.199 136.114 133.756 137.181 132.968 137.969C132.181 138.756 131.114 139.199 130 139.2H5C3.88645 139.199 2.81888 138.756 2.0315 137.969C1.24412 137.181 0.801231 136.114 0.8 135V105C0.801212 103.887 1.24409 102.819 2.03148 102.032C2.81886 101.244 3.88644 100.801 5 100.8H130ZM130 100H5C3.67511 100.004 2.40559 100.532 1.46875 101.469C0.531908 102.406 0.0038781 103.675 0 105L0 135C0.0038781 136.325 0.531908 137.595 1.46875 138.531C2.40559 139.468 3.67511 139.996 5 140H130C131.325 139.996 132.594 139.468 133.531 138.531C134.468 137.595 134.996 136.325 135 135V105C134.996 103.675 134.468 102.406 133.531 101.469C132.594 100.532 131.325 100.004 130 100Z" fill="#A6A6A6"/>
<path d="M47.4184 110.243C47.4366 110.61 47.3799 110.977 47.2518 111.321C47.1237 111.666 46.9268 111.98 46.6732 112.246C46.389 112.541 46.0457 112.772 45.6659 112.925C45.2861 113.078 44.8783 113.149 44.4691 113.134C44.0573 113.138 43.649 113.059 43.268 112.903C42.8871 112.746 42.5412 112.515 42.2508 112.223C41.9604 111.931 41.7313 111.584 41.5769 111.202C41.4226 110.821 41.3461 110.412 41.352 110C41.3462 109.588 41.4227 109.18 41.577 108.798C41.7314 108.416 41.9605 108.069 42.2509 107.777C42.5413 107.485 42.8871 107.254 43.268 107.097C43.649 106.941 44.0573 106.862 44.4691 106.866C44.8925 106.865 45.3116 106.95 45.7006 107.117C46.0619 107.264 46.3834 107.493 46.6391 107.788L46.1117 108.316C45.9107 108.079 45.6581 107.892 45.3733 107.768C45.0885 107.645 44.7791 107.589 44.4691 107.604C44.157 107.602 43.8478 107.663 43.56 107.784C43.2722 107.905 43.0118 108.082 42.7942 108.306C42.5767 108.53 42.4065 108.795 42.2939 109.086C42.1814 109.377 42.1287 109.688 42.1391 110C42.1317 110.467 42.2631 110.926 42.5168 111.319C42.7705 111.711 43.135 112.019 43.5641 112.204C43.9932 112.389 44.4676 112.442 44.927 112.357C45.3865 112.272 45.8104 112.053 46.1449 111.727C46.4528 111.395 46.6313 110.964 46.6478 110.511H44.4691V109.791H47.3764C47.4039 109.94 47.4179 110.091 47.4184 110.243Z" fill="white" stroke="white" stroke-width="0.2" stroke-miterlimit="10"/>
<path d="M52.0277 107.737H49.2953V109.64H51.7592V110.36H49.2953V112.263H52.0277V113H48.5248V107H52.0277V107.737Z" fill="white" stroke="white" stroke-width="0.2" stroke-miterlimit="10"/>
<path d="M55.2787 113H54.5072V107.737H52.8314V107H56.9545V107.737H55.2787V113Z" fill="white" stroke="white" stroke-width="0.2" stroke-miterlimit="10"/>
<path d="M59.9379 113V107H60.7084V113H59.9379Z" fill="white" stroke="white" stroke-width="0.2" stroke-miterlimit="10"/>
<path d="M64.1283 113H63.3568V107.737H61.6811V107H65.8041V107.737H64.1283V113Z" fill="white" stroke="white" stroke-width="0.2" stroke-miterlimit="10"/>
<path d="M73.6093 112.225C73.0253 112.807 72.2343 113.134 71.4096 113.134C70.5849 113.134 69.7939 112.807 69.2099 112.225C68.921 111.932 68.6939 111.584 68.542 111.202C68.3902 110.82 68.3168 110.411 68.3261 110C68.3168 109.589 68.3902 109.18 68.542 108.798C68.6939 108.416 68.921 108.068 69.2099 107.776C69.4986 107.487 69.8413 107.258 70.2186 107.102C70.5958 106.946 71.0002 106.865 71.4085 106.866C71.8167 106.866 72.2209 106.947 72.5979 107.104C72.9749 107.261 73.3173 107.49 73.6054 107.779C73.8945 108.071 74.1221 108.418 74.2746 108.8C74.4271 109.181 74.5014 109.589 74.4931 110C74.5022 110.411 74.4286 110.82 74.2768 111.202C74.125 111.584 73.898 111.932 73.6093 112.225ZM69.7792 111.722C70.2117 112.154 70.7979 112.397 71.4091 112.397C72.0203 112.397 72.6065 112.154 73.039 111.722C73.2608 111.495 73.4343 111.226 73.5489 110.93C73.6635 110.634 73.717 110.317 73.706 110C73.717 109.683 73.6635 109.367 73.5489 109.071C73.4343 108.775 73.2608 108.505 73.039 108.278C72.6065 107.846 72.0203 107.604 71.4091 107.604C70.7979 107.604 70.2117 107.846 69.7792 108.278C69.5577 108.505 69.3845 108.775 69.2701 109.071C69.1556 109.367 69.1022 109.683 69.1132 110C69.1022 110.317 69.1556 110.633 69.2701 110.929C69.3845 111.225 69.5577 111.495 69.7792 111.722Z" fill="white" stroke="white" stroke-width="0.2" stroke-miterlimit="10"/>
<path d="M75.5751 113V107H76.5136L79.4296 111.668H79.4628L79.4296 110.511V107H80.2011V113H79.3964L76.3456 108.106H76.3124L76.3456 109.263V113H75.5751Z" fill="white" stroke="white" stroke-width="0.2" stroke-miterlimit="10"/>
<path d="M68.1358 121.752C67.2953 121.755 66.4746 122.007 65.7773 122.476C65.08 122.946 64.5373 123.611 64.2179 124.388C63.8984 125.166 63.8165 126.021 63.9825 126.845C64.1484 127.668 64.5547 128.425 65.1502 129.018C65.7457 129.611 66.5035 130.015 67.3281 130.177C68.1527 130.34 69.0071 130.255 69.7833 129.933C70.5595 129.61 71.2228 129.065 71.6895 128.366C72.1561 127.667 72.4051 126.845 72.4051 126.005C72.4134 125.443 72.3085 124.885 72.0966 124.364C71.8848 123.843 71.5704 123.37 71.1721 122.973C70.7737 122.576 70.2997 122.264 69.7781 122.054C69.2564 121.844 68.698 121.741 68.1358 121.752ZM68.1358 128.583C67.6182 128.619 67.1014 128.5 66.6528 128.239C66.2043 127.978 65.8446 127.588 65.6207 127.12C65.3968 126.652 65.3191 126.127 65.3976 125.614C65.4761 125.101 65.7072 124.624 66.0608 124.244C66.4145 123.864 66.8743 123.599 67.3804 123.485C67.8865 123.37 68.4154 123.41 68.8983 123.6C69.3812 123.79 69.7957 124.121 70.0878 124.55C70.3799 124.979 70.5362 125.486 70.5362 126.005C70.5519 126.333 70.5019 126.66 70.389 126.969C70.2762 127.277 70.1028 127.559 69.8792 127.799C69.6555 128.04 69.386 128.233 69.0866 128.367C68.7872 128.502 68.4639 128.575 68.1358 128.583ZM58.8224 121.752C57.9819 121.755 57.1612 122.007 56.4638 122.476C55.7665 122.946 55.2239 123.611 54.9044 124.388C54.585 125.166 54.503 126.02 54.6689 126.844C54.8349 127.668 55.2412 128.425 55.8367 129.018C56.4321 129.611 57.19 130.015 58.0146 130.177C58.8392 130.34 59.6936 130.255 60.4698 129.933C61.246 129.61 61.9093 129.065 62.376 128.366C62.8426 127.667 63.0916 126.845 63.0916 126.005C63.0999 125.443 62.995 124.885 62.7831 124.364C62.5713 123.843 62.2569 123.37 61.8586 122.973C61.4603 122.576 60.9862 122.264 60.4646 122.054C59.943 121.844 59.3845 121.741 58.8224 121.752ZM58.8224 128.583C58.3048 128.619 57.788 128.5 57.3394 128.239C56.8909 127.978 56.5312 127.588 56.3073 127.12C56.0834 126.652 56.0057 126.127 56.0842 125.614C56.1627 125.101 56.3938 124.624 56.7474 124.244C57.1011 123.864 57.5609 123.599 58.067 123.485C58.573 123.37 59.102 123.41 59.5849 123.6C60.0678 123.79 60.4823 124.121 60.7744 124.55C61.0665 124.979 61.2228 125.486 61.2228 126.005C61.2385 126.333 61.1885 126.66 61.0757 126.969C60.9628 127.277 60.7895 127.559 60.5658 127.799C60.3421 128.04 60.0726 128.233 59.7732 128.367C59.4738 128.502 59.1505 128.575 58.8224 128.583ZM47.7436 123.057V124.861H52.0613C51.999 125.707 51.6527 126.508 51.0785 127.133C50.6458 127.574 50.1255 127.919 49.5511 128.147C48.9767 128.374 48.3609 128.479 47.7436 128.454C46.4816 128.437 45.277 127.923 44.3906 127.025C43.5042 126.126 43.0073 124.915 43.0073 123.653C43.0073 122.391 43.5042 121.179 44.3906 120.281C45.277 119.382 46.4816 118.869 47.7436 118.852C48.9558 118.836 50.1253 119.299 50.998 120.141L52.2707 118.868C51.6753 118.278 50.9681 117.814 50.1907 117.501C49.4134 117.189 48.5814 117.034 47.7436 117.047C46.8681 117.035 45.9988 117.196 45.1862 117.522C44.3737 117.849 43.6341 118.333 43.0104 118.948C42.3868 119.562 41.8916 120.295 41.5535 121.103C41.2155 121.91 41.0414 122.777 41.0414 123.653C41.0414 124.528 41.2155 125.395 41.5535 126.203C41.8916 127.011 42.3868 127.743 43.0104 128.358C43.6341 128.972 44.3737 129.457 45.1862 129.783C45.9988 130.109 46.8681 130.271 47.7436 130.258C48.5991 130.293 49.4523 130.147 50.2467 129.827C51.0411 129.508 51.7584 129.023 52.3512 128.405C53.4036 127.257 53.9646 125.742 53.914 124.184C53.9181 123.806 53.8857 123.429 53.8172 123.057H47.7436ZM93.0519 124.458C92.7963 123.688 92.3097 123.015 91.6583 122.531C91.0069 122.046 90.2223 121.774 89.4109 121.752C88.8644 121.755 88.3243 121.869 87.8232 122.087C87.3222 122.305 86.8705 122.623 86.4955 123.02C86.1206 123.418 85.8301 123.887 85.6417 124.4C85.4534 124.913 85.371 125.459 85.3995 126.005C85.3872 126.564 85.4877 127.12 85.6951 127.639C85.9024 128.159 86.2123 128.631 86.6063 129.028C87.0003 129.425 87.4703 129.739 87.9881 129.95C88.506 130.161 89.0611 130.266 89.6204 130.258C90.3211 130.262 91.0117 130.092 91.6303 129.763C92.2489 129.434 92.7761 128.956 93.1646 128.373L91.7147 127.407C91.4975 127.767 91.1902 128.065 90.8231 128.271C90.4559 128.478 90.0415 128.585 89.6204 128.583C89.1871 128.599 88.7588 128.485 88.3911 128.255C88.0234 128.025 87.7332 127.69 87.5582 127.294L93.2453 124.942L93.0519 124.458ZM87.2522 125.876C87.2322 125.566 87.2741 125.256 87.3755 124.963C87.4769 124.67 87.6357 124.4 87.8428 124.169C88.0498 123.938 88.3008 123.75 88.5811 123.617C88.8614 123.485 89.1654 123.409 89.4753 123.395C89.798 123.374 90.1198 123.448 90.4006 123.608C90.6813 123.769 90.9087 124.008 91.0542 124.297L87.2522 125.876ZM82.6284 130H84.4972V117.499H82.6284V130ZM79.5674 122.702H79.503C79.2189 122.394 78.8721 122.149 78.486 121.985C78.0998 121.821 77.683 121.742 77.2636 121.752C76.1669 121.798 75.1306 122.267 74.3711 123.059C73.6116 123.852 73.1876 124.907 73.1876 126.005C73.1876 127.103 73.6116 128.158 74.3711 128.95C75.1306 129.743 76.1669 130.211 77.2636 130.258C77.6847 130.269 78.1031 130.189 78.4899 130.022C78.8766 129.855 79.2223 129.606 79.503 129.291H79.5674V129.904C79.5674 131.531 78.6975 132.401 77.2958 132.401C76.8287 132.39 76.3754 132.24 75.9939 131.97C75.6123 131.7 75.3196 131.323 75.1532 130.886L73.526 131.563C73.8327 132.31 74.3553 132.948 75.027 133.396C75.6986 133.843 76.4886 134.08 77.2958 134.076C79.4869 134.076 81.3396 132.787 81.3396 129.646V122.009H79.5674V122.702ZM77.4248 128.583C76.7789 128.528 76.177 128.232 75.7384 127.755C75.2999 127.278 75.0565 126.653 75.0565 126.005C75.0565 125.357 75.2999 124.732 75.7384 124.255C76.177 123.777 76.7789 123.482 77.4248 123.427C77.7462 123.443 78.0611 123.523 78.3508 123.663C78.6404 123.803 78.899 124 79.111 124.242C79.3229 124.484 79.484 124.766 79.5846 125.072C79.6851 125.378 79.7231 125.7 79.6963 126.021C79.7214 126.34 79.682 126.66 79.5805 126.963C79.4789 127.266 79.3173 127.546 79.1052 127.785C78.8931 128.024 78.635 128.218 78.3463 128.355C78.0576 128.492 77.7442 128.569 77.4248 128.583ZM101.806 117.499H97.3346V130H99.2003V125.264H101.806C102.334 125.293 102.862 125.214 103.358 125.032C103.854 124.85 104.308 124.568 104.692 124.205C105.076 123.842 105.381 123.404 105.59 122.918C105.799 122.433 105.907 121.91 105.907 121.381C105.907 120.853 105.799 120.33 105.59 119.844C105.381 119.359 105.076 118.921 104.692 118.558C104.308 118.194 103.854 117.913 103.358 117.731C102.862 117.549 102.334 117.47 101.806 117.499ZM101.854 123.524H99.2003V119.239H101.854C102.139 119.233 102.423 119.284 102.688 119.389C102.953 119.494 103.194 119.651 103.398 119.85C103.602 120.05 103.764 120.288 103.874 120.551C103.985 120.814 104.042 121.096 104.042 121.381C104.042 121.667 103.985 121.949 103.874 122.212C103.764 122.475 103.602 122.713 103.398 122.912C103.194 123.112 102.953 123.269 102.688 123.374C102.423 123.479 102.139 123.53 101.854 123.524ZM113.386 121.729C112.705 121.689 112.027 121.849 111.435 122.189C110.844 122.529 110.365 123.034 110.056 123.643L111.713 124.334C111.877 124.032 112.126 123.785 112.429 123.622C112.732 123.459 113.075 123.388 113.418 123.417C113.891 123.371 114.363 123.515 114.731 123.816C115.099 124.117 115.332 124.553 115.38 125.026V125.154C114.781 124.836 114.112 124.67 113.434 124.672C111.649 124.672 109.831 125.653 109.831 127.487C109.849 127.873 109.943 128.252 110.11 128.601C110.277 128.95 110.512 129.262 110.801 129.519C111.091 129.775 111.429 129.971 111.795 130.094C112.162 130.218 112.55 130.266 112.935 130.237C113.405 130.264 113.874 130.166 114.292 129.951C114.711 129.736 115.064 129.412 115.316 129.014H115.38V129.979H117.181V125.187C117.181 122.967 115.525 121.729 113.386 121.729ZM113.161 128.58C112.549 128.58 111.697 128.275 111.697 127.519C111.697 126.554 112.758 126.184 113.675 126.184C114.271 126.168 114.859 126.312 115.38 126.602C115.311 127.144 115.049 127.643 114.641 128.007C114.233 128.371 113.707 128.574 113.161 128.58ZM123.743 122.002L121.604 127.422H121.54L119.32 122.002H117.31L120.639 129.577L118.741 133.791H120.687L125.818 122.002H123.743ZM106.936 130H108.802V117.499H106.936V130Z" fill="white"/>
<path d="M10.4353 107.538C10.1074 107.93 9.94182 108.433 9.97251 108.943V131.059C9.94173 131.569 10.1073 132.072 10.4353 132.464L10.5093 132.536L22.8983 120.147V119.855L10.5093 107.466L10.4353 107.538Z" fill="url(#paint0_linear)"/>
<path d="M27.0277 124.279L22.8983 120.147V119.855L27.0287 115.724L27.1218 115.778L32.0146 118.558C33.4122 119.352 33.4122 120.651 32.0146 121.445L27.1218 124.225L27.0277 124.279Z" fill="url(#paint1_linear)"/>
<path d="M27.1218 124.225L22.8983 120.001L10.4353 132.464C10.7201 132.715 11.0837 132.859 11.4633 132.87C11.8428 132.881 12.2143 132.759 12.5134 132.525L27.1218 124.225Z" fill="url(#paint2_linear)"/>
<path d="M27.1218 115.777L12.5134 107.477C12.2143 107.243 11.8428 107.121 11.4633 107.132C11.0837 107.143 10.7201 107.287 10.4353 107.538L22.8983 120.001L27.1218 115.777Z" fill="url(#paint3_linear)"/>
<path opacity="0.2" d="M27.0287 124.132L12.5134 132.379C12.2258 132.598 11.8748 132.718 11.5134 132.72C11.152 132.722 10.7997 132.606 10.5098 132.39L10.4353 132.464L10.5093 132.537L10.5098 132.536C10.7997 132.752 11.1519 132.868 11.5134 132.866C11.8749 132.864 12.2259 132.744 12.5134 132.525L27.1218 124.225L27.0287 124.132Z" fill="black"/>
<path opacity="0.12" d="M10.4353 132.318C10.1074 131.926 9.94186 131.424 9.97251 130.914V131.06C9.94184 131.57 10.1074 132.072 10.4353 132.465L10.5098 132.39L10.4353 132.318Z" fill="black"/>
<path opacity="0.12" d="M32.0146 121.299L27.0287 124.132L27.1218 124.225L32.0146 121.445C32.3024 121.32 32.5515 121.12 32.7358 120.866C32.9202 120.612 33.0331 120.314 33.0629 120.001C33.001 120.284 32.8741 120.549 32.6921 120.774C32.5101 120.999 32.2781 121.179 32.0146 121.299Z" fill="black"/>
<path opacity="0.25" d="M12.5134 107.623L32.0146 118.703C32.2783 118.823 32.5103 119.003 32.6923 119.228C32.8743 119.453 33.0012 119.718 33.0629 120.001C33.0334 119.689 32.9205 119.39 32.7361 119.136C32.5517 118.882 32.3026 118.682 32.0146 118.557L12.5134 107.477C11.1158 106.683 9.9725 107.343 9.9725 108.944V109.09C9.9725 107.489 11.1158 106.829 12.5134 107.623Z" fill="white"/>
<defs>
<linearGradient id="paint0_linear" x1="21.7996" y1="108.71" x2="5.01724" y2="125.492" gradientUnits="userSpaceOnUse">
<stop stop-color="#00A0FF"/>
<stop offset="0.00657" stop-color="#00A1FF"/>
<stop offset="0.2601" stop-color="#00BEFF"/>
<stop offset="0.5122" stop-color="#00D2FF"/>
<stop offset="0.7604" stop-color="#00DFFF"/>
<stop offset="1" stop-color="#00E3FF"/>
</linearGradient>
<linearGradient id="paint1_linear" x1="33.8343" y1="120.002" x2="9.6374" y2="120.002" gradientUnits="userSpaceOnUse">
<stop stop-color="#FFE000"/>
<stop offset="0.4087" stop-color="#FFBD00"/>
<stop offset="0.7754" stop-color="#FFA500"/>
<stop offset="1" stop-color="#FF9C00"/>
</linearGradient>
<linearGradient id="paint2_linear" x1="24.8269" y1="122.296" x2="2.06857" y2="145.054" gradientUnits="userSpaceOnUse">
<stop stop-color="#FF3A44"/>
<stop offset="1" stop-color="#C31162"/>
</linearGradient>
<linearGradient id="paint3_linear" x1="7.29723" y1="100.176" x2="17.4598" y2="110.339" gradientUnits="userSpaceOnUse">
<stop stop-color="#32A071"/>
<stop offset="0.0685" stop-color="#2DA771"/>
<stop offset="0.4762" stop-color="#15CF74"/>
<stop offset="0.8009" stop-color="#06E775"/>
<stop offset="1" stop-color="#00F076"/>
</linearGradient>
<clipPath id="clip0">
<rect width="135" height="40" fill="white" transform="translate(0 44)"/>
</clipPath>
</defs>
</svg>
